<?xml version="1.0" standalone="no"?>
<!DOCTYPE svg PUBLIC "-//W3C//DTD SVG 20010904//EN"
 "http://www.w3.org/TR/2001/REC-SVG-20010904/DTD/svg10.dtd">
<svg version="1.0" xmlns="http://www.w3.org/2000/svg"
 width="1024.000000pt" height="1024.000000pt" viewBox="0 0 1024.000000 1024.000000"
 preserveAspectRatio="xMidYMid meet">
<metadata>
Created by potrace 1.14, written by Peter Selinger 2001-2017
</metadata>
<g transform="translate(0.000000,1024.000000) scale(0.100000,-0.100000)"
fill="#000000" stroke="none">
<path d="M4939 10236 c-2 -2 -35 -6 -74 -10 -123 -11 -175 -19 -270 -41 -38
-8 -79 -17 -90 -19 -87 -17 -313 -96 -422 -146 -36 -17 -71 -30 -79 -30 -8 0
-14 -4 -14 -9 0 -5 -15 -14 -32 -22 -18 -7 -66 -32 -105 -56 -40 -24 -77 -43
-83 -43 -5 0 -10 -4 -10 -10 0 -5 -7 -10 -15 -10 -8 0 -15 -4 -15 -8 0 -5 -11
-14 -25 -20 -14 -7 -31 -16 -38 -22 -7 -5 -64 -50 -127 -99 -140 -108 -236
-201 -399 -386 -17 -19 -123 -163 -149 -201 -21 -32 -76 -119 -91 -145 -26
-43 -141 -277 -141 -286 0 -4 -6 -20 -14 -34 -7 -15 -23 -58 -35 -95 -12 -38
-26 -76 -30 -84 -5 -9 -12 -31 -17 -50 -4 -19 -9 -38 -10 -42 -1 -5 -3 -10 -4
-13 -3 -7 -5 -14 -15 -60 -13 -56 -12 -54 -15 -60 -4 -7 -5 -15 -14 -68 -4
-27 -9 -59 -12 -70 -13 -69 -25 -176 -28 -268 -1 -41 -6 -80 -9 -86 -4 -7 -3
-14 3 -18 7 -4 7 -13 -1 -26 -7 -14 -7 -24 0 -32 6 -8 6 -18 1 -27 -5 -8 -6
-19 -2 -24 3 -6 7 -42 8 -81 2 -72 11 -173 18 -211 6 -29 17 -93 21 -126 2
-15 8 -44 14 -65 6 -21 12 -49 15 -63 3 -14 7 -35 10 -47 8 -36 86 -266 101
-300 8 -17 15 -34 15 -38 0 -13 141 -289 156 -306 8 -8 14 -20 14 -25 0 -5 14
-27 30 -48 17 -22 30 -43 30 -48 0 -4 7 -16 16 -25 8 -10 38 -49 67 -88 28
-38 53 -72 56 -75 3 -3 29 -32 56 -65 116 -138 386 -381 475 -427 14 -7 33
-20 42 -28 9 -8 43 -30 75 -49 32 -19 69 -41 83 -50 40 -24 210 -106 270 -131
30 -12 69 -27 85 -35 58 -26 269 -89 334 -100 19 -3 37 -8 41 -10 4 -3 22 -7
41 -9 19 -3 48 -8 64 -11 34 -7 66 -11 175 -22 143 -15 571 -6 600 12 3 2 31
6 61 9 30 3 64 8 77 10 46 10 262 66 287 76 14 5 25 7 25 4 0 -4 6 -2 13 4 6
6 41 20 77 32 36 12 71 26 78 32 6 6 12 8 12 4 0 -3 21 5 48 18 26 14 54 26
62 28 8 2 17 5 20 8 3 3 37 21 75 40 39 19 72 37 75 40 5 5 41 26 79 46 13 7
27 16 30 21 3 4 22 17 41 27 19 11 40 24 45 28 6 4 24 19 41 33 18 14 36 25
42 25 6 0 12 3 14 8 2 4 28 27 58 52 114 94 243 218 320 309 25 29 54 63 65
76 53 61 205 284 205 302 0 6 4 13 9 15 7 3 129 230 130 243 1 3 8 22 17 43
56 129 134 378 150 479 5 26 9 50 9 53 3 10 15 76 20 105 9 54 18 169 19 232
1 35 4 63 8 63 4 0 3 11 -2 25 -6 15 -6 27 0 30 6 3 6 15 0 30 -6 17 -6 25 1
25 6 0 7 5 3 11 -4 6 -8 51 -9 99 -2 47 -6 104 -10 126 -3 21 -8 59 -10 84 -3
25 -7 54 -9 65 -2 11 -14 64 -25 119 -11 54 -31 130 -43 170 -12 39 -23 77
-24 84 -1 8 -6 21 -10 30 -4 9 -9 26 -11 37 -2 11 -8 22 -13 23 -6 2 -10 12
-10 21 0 27 -95 233 -170 368 -58 104 -204 309 -296 413 -38 43 -170 176 -220
221 -68 61 -221 179 -233 179 -6 0 -11 4 -11 9 0 5 -15 18 -32 29 -226 136
-313 182 -483 252 -27 12 -138 52 -150 55 -5 1 -17 5 -25 8 -23 10 -246 66
-283 72 -53 7 -100 15 -137 21 -19 4 -48 8 -65 10 -43 5 -462 13 -466 10z"/>
<path d="M4216 4163 c-1 -1 -69 -5 -151 -8 -83 -3 -168 -7 -190 -10 -93 -10
-142 -16 -165 -20 -23 -4 -42 -7 -140 -21 -19 -3 -41 -6 -47 -6 -7 -1 -13 -5
-13 -10 0 -5 -4 -7 -8 -4 -4 2 -39 -2 -77 -11 -94 -20 -100 -21 -100 -23 0 -1
-7 -3 -15 -5 -8 -1 -42 -10 -75 -19 -33 -9 -67 -19 -75 -21 -60 -15 -351 -124
-360 -134 -3 -3 -12 -7 -20 -9 -37 -9 -353 -171 -409 -211 -16 -12 -32 -21
-35 -21 -10 0 -176 -113 -269 -183 -94 -71 -99 -75 -141 -112 -17 -14 -45 -38
-64 -53 -45 -35 -308 -299 -347 -347 -16 -21 -39 -48 -50 -61 -25 -28 -38 -45
-100 -124 -27 -36 -53 -66 -57 -68 -5 -2 -8 -8 -8 -13 0 -10 -62 -103 -72
-107 -5 -2 -8 -10 -8 -18 0 -8 -4 -14 -10 -14 -5 0 -10 -5 -10 -11 0 -6 -14
-31 -32 -56 -35 -52 -79 -130 -135 -243 -20 -41 -41 -76 -45 -78 -4 -2 -8 -11
-8 -21 0 -9 -4 -21 -8 -27 -5 -5 -28 -56 -51 -114 -24 -58 -47 -114 -52 -125
-8 -19 -37 -99 -43 -120 -2 -5 -6 -17 -9 -25 -9 -25 -73 -252 -82 -295 -2 -5
-8 -37 -16 -70 -7 -33 -13 -62 -14 -65 0 -3 -4 -26 -8 -51 -7 -44 -11 -63 -22
-127 -2 -15 -7 -58 -11 -97 -3 -38 -8 -79 -11 -90 -2 -11 -6 -103 -8 -205 -4
-139 -1 -200 9 -245 36 -150 124 -278 247 -361 50 -34 132 -74 152 -74 8 0 17
-3 20 -7 4 -3 24 -9 45 -12 20 -3 1830 -6 4022 -6 l3985 0 65 23 c206 73 350
235 398 447 12 53 4 515 -9 515 -3 0 -6 20 -8 44 -1 25 -4 55 -7 68 -2 13 -6
39 -9 58 -3 19 -9 58 -15 85 -5 28 -12 64 -15 80 -2 17 -9 45 -14 63 -5 17 -7
32 -3 32 3 0 1 5 -5 11 -6 6 -9 18 -6 25 3 8 1 14 -5 14 -6 0 -9 8 -7 18 1 9
-3 33 -10 52 -7 19 -27 82 -45 139 -17 58 -37 116 -43 130 -5 14 -11 29 -12
34 -2 4 -4 9 -5 12 -1 3 -3 9 -4 14 0 5 -4 13 -8 17 -5 4 -8 16 -8 26 0 10 -4
18 -10 18 -5 0 -9 3 -8 8 6 17 -120 285 -199 422 -60 104 -195 313 -213 330
-3 3 -23 30 -45 60 -22 30 -42 57 -45 60 -3 3 -27 32 -54 65 -70 85 -63 77
-209 225 -132 133 -194 190 -307 279 -14 11 -41 33 -60 49 -169 138 -504 335
-745 436 -60 26 -118 51 -127 56 -10 6 -26 10 -36 10 -10 0 -23 5 -29 11 -6 6
-17 12 -24 13 -8 2 -21 6 -29 9 -40 15 -209 67 -231 71 -13 2 -24 5 -24 6 0 1
-8 3 -17 5 -9 2 -48 11 -85 20 -37 10 -79 19 -93 21 -14 3 -36 7 -50 9 -64 13
-78 15 -115 20 -22 3 -47 7 -55 10 -8 2 -44 7 -80 10 -36 4 -83 9 -105 11 -22
3 -91 7 -154 9 -63 3 -116 7 -119 9 -2 3 -15 1 -28 -4 -14 -6 -26 -6 -29 0 -3
6 -15 6 -30 0 -14 -5 -25 -6 -25 -2 0 4 -38 7 -85 7 -47 0 -85 -2 -85 -5 0 -7
-79 -4 -86 3 -3 3 -17 2 -30 -3 -14 -6 -24 -6 -24 0 0 5 -12 5 -27 1 -16 -4
-40 -4 -55 0 -16 4 -28 3 -28 -2 0 -5 -11 -4 -25 1 -15 6 -26 6 -30 0 -4 -6
-13 -7 -23 -1 -11 6 -24 6 -34 0 -10 -6 -19 -6 -23 0 -4 7 -15 7 -30 1 -14 -5
-25 -6 -25 -2 0 8 -85 6 -107 -3 -7 -2 -13 -1 -13 3 0 4 -13 7 -30 7 -16 0
-30 -3 -30 -7 0 -4 -10 -4 -22 0 -26 9 -60 8 -76 -2 -6 -3 -13 -2 -17 3 -4 7
-15 7 -30 1 -14 -5 -25 -6 -25 -2 0 4 -38 7 -85 7 -47 0 -85 -2 -85 -5 0 -7
-90 -3 -97 4 -3 3 -13 1 -22 -4 -10 -5 -23 -5 -31 0 -8 5 -21 5 -31 -1 -11 -6
-20 -5 -24 1 -4 6 -15 6 -30 0 -14 -5 -25 -6 -25 -2 0 8 -85 6 -106 -2 -6 -2
-17 0 -24 4 -8 5 -22 4 -31 -1 -11 -6 -20 -5 -24 1 -4 6 -15 6 -30 0 -14 -5
-25 -6 -25 -2 0 6 -118 11 -124 5z"/>
</g>
</svg>
